<svg width="19" height="12" viewBox="0 0 19 12" fill="none" xmlns="http://www.w3.org/2000/svg">
<path fill-rule="evenodd" clip-rule="evenodd" d="M7.08971 5.77846C7.08971 3.94154 7.93841 2.30608 9.25983 1.24768C8.28542 0.467233 7.05453 0 5.71493 0C2.55869 0 0 2.58713 0 5.77846C0 8.96978 2.55869 11.5569 5.71493 11.5569C7.05453 11.5569 8.28542 11.0897 9.25983 10.3092C7.93841 9.25083 7.08971 7.61537 7.08971 5.77846Z" fill="#EB001B"/>
<path fill-rule="evenodd" clip-rule="evenodd" d="M7.0896 5.77845C7.0896 7.61537 7.93829 9.25083 9.25971 10.3092C10.5811 9.25083 11.4297 7.61537 11.4297 5.77845C11.4297 3.94154 10.5811 2.30607 9.25971 1.24768C7.93829 2.30607 7.0896 3.94154 7.0896 5.77845Z" fill="#FF5E00"/>
<path fill-rule="evenodd" clip-rule="evenodd" d="M12.8046 0C11.465 0 10.2341 0.467233 9.25977 1.24768C10.5811 2.30615 11.4298 3.94154 11.4298 5.77846C11.4298 7.61537 10.5811 9.25083 9.25977 10.3092C10.2341 11.0897 11.465 11.5569 12.8046 11.5569C15.9608 11.5569 18.5195 8.96978 18.5195 5.77846C18.5195 2.58713 15.9608 0 12.8046 0Z" fill="#F79E1C"/>
</svg>
