<svg width="12" height="14" viewBox="0 0 12 14" fill="none" xmlns="http://www.w3.org/2000/svg">
<path d="M9.93401 1.05579C9.29652 0.316817 8.14415 0 6.66992 0H2.3913C2.08998 1.13472e-05 1.83338 0.222835 1.78616 0.525501L0.00462312 12.0167C-0.030788 12.2433 0.141738 12.4485 0.367564 12.4485H3.00903L3.67242 8.16914L3.65183 8.30314C3.69909 8.00065 3.95347 7.77755 4.25469 7.77755H5.50991C7.97578 7.77755 9.9066 6.75893 10.4706 3.81228C10.4874 3.72513 10.5019 3.64031 10.5144 3.55744C10.4432 3.5191 10.4432 3.5191 10.5144 3.55744C10.6824 2.46833 10.5133 1.72698 9.93401 1.05579Z" fill="#27346A"/>
<path d="M4.68315 3.1651C4.75536 3.13013 4.83434 3.11201 4.91432 3.11206H8.26868C8.66589 3.11206 9.03638 3.13835 9.37494 3.19377C9.46967 3.20913 9.56392 3.22747 9.65754 3.24876C9.79023 3.27854 9.92139 3.31499 10.0505 3.35797C10.217 3.4145 10.372 3.48034 10.5145 3.55744C10.6824 2.46791 10.5133 1.72698 9.93401 1.05579C9.29615 0.316817 8.14415 0 6.66992 0H2.39094C2.08967 0 1.83337 0.223061 1.78616 0.525501L0.00462337 12.0163C-0.0307878 12.2432 0.141738 12.4481 0.367198 12.4481H3.00903L4.38535 3.57177C4.41283 3.39466 4.52417 3.24261 4.68315 3.1651Z" fill="#27346A"/>
<path d="M10.4706 3.81221C9.90655 6.75844 7.97578 7.77748 5.50985 7.77748H4.25427C3.95304 7.77748 3.69862 8.00059 3.65182 8.30307L2.82652 13.6239C2.79569 13.8222 2.94648 14.0019 3.14376 14.0019H5.37045C5.63396 14.0019 5.85829 13.8069 5.89947 13.5422L5.92115 13.4268L6.34082 10.7218L6.36786 10.5723C6.40904 10.3076 6.63335 10.1127 6.89683 10.1126H7.23008C9.3871 10.1126 11.0761 9.22138 11.5696 6.64384C11.7757 5.56669 11.6691 4.66737 11.1241 4.03569C10.9588 3.84437 10.7535 3.68635 10.5143 3.55737C10.5014 3.64066 10.4874 3.72506 10.4706 3.81221Z" fill="#2790C3"/>
<path d="M9.92403 3.31802C9.83609 3.2919 9.74731 3.26878 9.65785 3.24869C9.56418 3.22774 9.46994 3.20953 9.37525 3.19406C9.03633 3.13828 8.66611 3.11194 8.26854 3.11194H4.91459C4.83455 3.11176 4.75551 3.13003 4.68341 3.1654C4.52424 3.24268 4.4128 3.39484 4.38558 3.57207L3.67269 8.16906L3.6521 8.30307C3.69899 8.00058 3.95337 7.77747 4.25464 7.77747H5.51022C7.9761 7.77747 9.90687 6.75885 10.4709 3.8122C10.4877 3.72506 10.5018 3.6406 10.5147 3.55736C10.3719 3.48068 10.2173 3.41443 10.0508 3.35827C10.0088 3.3441 9.96655 3.33068 9.92408 3.31802" fill="#1F264F"/>
</svg>
